<svg version="1.1" xmlns="http://www.w3.org/2000/svg" viewBox="0 0 602 856" preserveAspectRatio="xMidYMid meet" xmlns:xlink="http://www.w3.org/1999/xlink" xmlns:svgjs="http://svgjs.dev/svgjs">
<path d="M0 0 C198.66 0 397.32 0 602 0 C602 148.5 602 297 602 450 C491.78 450 381.56 450 268 450 C268.33 450.99 268.66 451.98 269 453 C269.094 455.115 269.126 457.232 269.127 459.349 C269.129 459.996 269.13 460.644 269.132 461.311 C269.136 463.486 269.133 465.661 269.129 467.836 C269.131 469.396 269.133 470.955 269.135 472.515 C269.139 476.767 269.137 481.02 269.134 485.272 C269.132 489.76 269.134 494.248 269.136 498.736 C269.138 506.314 269.135 513.892 269.13 521.47 C269.125 530.118 269.127 538.767 269.132 547.416 C269.137 554.902 269.137 562.388 269.135 569.874 C269.133 574.316 269.133 578.758 269.136 583.199 C269.153 608.48 268.724 633.73 268 659 C267.34 659.33 266.68 659.66 266 660 C265.381 660.701 264.762 661.403 264.125 662.125 C260.612 665.765 256.133 667.932 251.742 670.352 C248.623 672.226 246.627 673.746 245 677 C244.34 677 243.68 677 243 677 C243 677.66 243 678.32 243 679 C242.278 679.268 241.556 679.536 240.812 679.812 C235.998 681.845 233.233 683.237 231 688 C227.923 690.967 225.192 691.524 221 692 C221 692.66 221 693.32 221 694 C220.34 694 219.68 694 219 694 C218.67 694.66 218.34 695.32 218 696 C217.67 696.66 217.34 697.32 217 698 C216.01 698.33 215.02 698.66 214 699 C212.646 700.313 211.312 701.646 210 703 C208 704 208 704 205 705 C204.288 705.712 204.288 705.712 203.562 706.438 C201.845 708.155 200.155 708.922 198 710 C197.67 710.66 197.34 711.32 197 712 C196.34 712.99 195.68 713.98 195 715 C194.34 715 193.68 715 193 715 C193 715.66 193 716.32 193 717 C192.34 717 191.68 717 191 717 C190.34 717.66 189.68 718.32 189 719 C188.34 719 187.68 719 187 719 C185.087 720.731 183.417 722.646 181.688 724.562 C178.798 727.184 176.734 728.026 173 729 C169.882 729.646 169.882 729.646 169 732 C168.024 733.023 167.019 734.019 166 735 C165.402 735.66 164.804 736.32 164.188 737 C161.655 739.315 159.085 740.522 156 742 C154.638 742.961 153.301 743.959 152 745 C151.361 745.454 150.721 745.908 150.062 746.375 C147.851 748.03 147.851 748.03 145.688 750.5 C143 753 143 753 139.5 754.438 C135.371 756.281 133.775 758.494 131 762 C127.839 764.212 124.61 765.659 121 767 C121 767.66 121 768.32 121 769 C120.01 769 119.02 769 118 769 C116.875 770.125 115.76 771.262 114.688 772.438 C113 774 113 774 110.312 775.562 C109.549 776.037 108.786 776.511 108 777 C108 777.66 108 778.32 108 779 C107.408 779.303 106.817 779.606 106.207 779.918 C100.657 782.86 96.613 785.952 92.5 790.75 C90.482 792.432 88.549 792.49 86 793 C84.417 794.249 84.417 794.249 83 796 C80.12 799.028 77.773 801.239 74 803 C73.464 803.536 72.927 804.072 72.375 804.625 C71.921 805.079 71.468 805.533 71 806 C70.34 806 69.68 806 69 806 C66.837 808.033 66.837 808.033 65 811 C64.319 811.165 63.639 811.33 62.938 811.5 C62.298 811.665 61.659 811.83 61 812 C60.67 812.99 60.34 813.98 60 815 C59.01 815.33 58.02 815.66 57 816 C55.656 816.986 54.324 817.988 53 819 C52.196 819.454 51.391 819.908 50.562 820.375 C47.608 822.249 45.436 824.5 43 827 C40 829 40 829 38 829 C35.205 831.04 32.827 833.181 30.438 835.688 C28.122 837.884 27.099 838.656 24 839 C24 839.66 24 840.32 24 841 C23.01 841 22.02 841 21 841 C19.667 842.333 18.354 843.688 17.062 845.062 C15 847 15 847 12 848 C9.698 850.187 7.511 852.408 5.438 854.812 C4 856 4 856 0 856 C0 573.52 0 291.04 0 0 Z M266 449 C266 450.65 266 452.3 266 454 C266.33 454 266.66 454 267 454 C267 452.35 267 450.7 267 449 C266.67 449 266.34 449 266 449 Z M267 455 C267 498.89 267 542.78 267 588 C267.33 588 267.66 588 268 588 C268 544.11 268 500.22 268 455 C267.67 455 267.34 455 267 455 Z M174 728 C176 729 176 729 176 729 Z M124 765 C126 766 126 766 126 766 Z M109 776 C111 777 111 777 111 777 Z M25 838 C27 839 27 839 27 839 Z M10 849 C12 850 12 850 12 850 Z " fill="#E6E6E7" transform="translate(0,0)"></path>
<path d="M0 0 C0.892 0 1.784 0 2.704 0 C25.677 0.001 48.65 0.012 71.623 0.026 C84.953 0.034 98.284 0.039 111.615 0.043 C113.042 0.043 113.042 0.043 114.498 0.044 C119.274 0.045 124.051 0.046 128.827 0.047 C167.884 0.058 206.94 0.075 245.996 0.098 C246.147 29.236 246.292 58.375 246.429 87.514 C246.446 90.962 246.462 94.41 246.478 97.858 C246.482 98.544 246.485 99.23 246.488 99.938 C246.541 111.019 246.597 122.101 246.655 133.183 C246.714 144.573 246.77 155.962 246.821 167.352 C246.85 173.741 246.881 180.131 246.917 186.52 C246.95 192.545 246.978 198.571 247.003 204.596 C247.013 206.797 247.024 208.997 247.038 211.197 C247.099 221.138 247.113 231.053 246.557 240.981 C246.518 241.695 246.479 242.409 246.439 243.145 C246.125 247.969 246.125 247.969 244.996 249.098 C243.646 249.194 242.291 249.221 240.937 249.221 C240.058 249.223 239.178 249.225 238.271 249.227 C236.805 249.222 236.805 249.222 235.309 249.218 C233.764 249.219 233.764 249.219 232.188 249.22 C228.709 249.222 225.229 249.217 221.75 249.211 C219.267 249.211 216.784 249.211 214.301 249.212 C208.941 249.212 203.581 249.209 198.221 249.203 C190.471 249.195 182.721 249.193 174.972 249.191 C162.399 249.189 149.827 249.183 137.255 249.173 C125.039 249.164 112.823 249.157 100.607 249.153 C99.855 249.152 99.102 249.152 98.327 249.152 C94.552 249.15 90.778 249.149 87.003 249.148 C55.667 249.138 24.332 249.119 -7.004 249.098 C-7.004 281.768 -7.004 314.438 -7.004 348.098 C104.206 348.098 215.416 348.098 329.996 348.098 C329.996 349.418 329.996 350.738 329.996 352.098 C219.776 352.098 109.556 352.098 -4.004 352.098 C-3.674 353.088 -3.344 354.078 -3.004 355.098 C-2.91 357.212 -2.878 359.33 -2.877 361.447 C-2.875 362.094 -2.874 362.741 -2.872 363.408 C-2.868 365.584 -2.871 367.759 -2.875 369.934 C-2.873 371.494 -2.871 373.053 -2.869 374.613 C-2.865 378.865 -2.866 383.117 -2.87 387.37 C-2.872 391.858 -2.87 396.346 -2.868 400.833 C-2.866 408.411 -2.869 415.989 -2.874 423.567 C-2.879 432.216 -2.877 440.865 -2.872 449.514 C-2.867 457 -2.867 464.486 -2.869 471.972 C-2.871 476.413 -2.871 480.855 -2.868 485.297 C-2.851 510.578 -3.28 535.828 -4.004 561.098 C-4.994 561.098 -5.984 561.098 -7.004 561.098 C-7.004 545.918 -7.004 530.738 -7.004 515.098 C-13.561 515.109 -20.119 515.121 -26.875 515.133 C-31.018 515.138 -35.16 515.143 -39.303 515.146 C-45.885 515.152 -52.467 515.16 -59.049 515.173 C-64.353 515.184 -69.657 515.19 -74.96 515.193 C-76.989 515.194 -79.017 515.198 -81.045 515.203 C-83.876 515.211 -86.706 515.212 -89.537 515.211 C-90.384 515.215 -91.232 515.218 -92.105 515.222 C-97.89 515.212 -97.89 515.212 -99.004 514.098 C-99.103 511.782 -99.136 509.497 -99.127 507.181 C-99.128 506.445 -99.129 505.71 -99.13 504.952 C-99.133 502.456 -99.129 499.959 -99.124 497.463 C-99.125 495.668 -99.125 493.873 -99.127 492.078 C-99.129 487.12 -99.125 482.163 -99.12 477.205 C-99.116 471.869 -99.117 466.532 -99.118 461.195 C-99.118 451.941 -99.115 442.686 -99.11 433.432 C-99.102 420.051 -99.099 406.671 -99.098 393.29 C-99.095 371.583 -99.089 349.877 -99.079 328.17 C-99.07 307.078 -99.063 285.987 -99.059 264.895 C-99.059 263.596 -99.058 262.297 -99.058 260.958 C-99.057 254.441 -99.055 247.925 -99.054 241.408 C-99.044 187.304 -99.026 133.201 -99.004 79.098 C-94.693 78.459 -90.548 77.969 -86.189 77.939 C-85.077 77.93 -83.965 77.92 -82.82 77.91 C-81.02 77.901 -81.02 77.901 -79.184 77.892 C-77.905 77.882 -76.626 77.873 -75.309 77.862 C-71.82 77.835 -68.331 77.814 -64.841 77.794 C-61.189 77.772 -57.536 77.745 -53.883 77.718 C-46.974 77.668 -40.064 77.623 -33.155 77.58 C-25.285 77.531 -17.416 77.476 -9.546 77.421 C6.634 77.307 22.815 77.2 38.996 77.098 C37.748 77.1 37.748 77.1 36.475 77.103 C-25.369 77.239 -25.369 77.239 -55.234 76.84 C-56.608 76.822 -56.608 76.822 -58.009 76.803 C-66.977 76.684 -75.946 76.555 -84.913 76.407 C-100.979 76.146 -116.947 75.985 -132.999 76.86 C-141.1 77.287 -149.207 77.17 -157.316 77.098 C-160.458 77.071 -163.6 77.051 -166.742 77.035 C-167.447 77.027 -168.152 77.019 -168.878 77.01 C-172.565 76.938 -172.565 76.938 -176.004 78.098 C-179.902 70.302 -178.135 58.515 -178.102 50.023 C-178.101 48.776 -178.1 47.529 -178.099 46.245 C-178.096 43.457 -178.09 40.669 -178.082 37.881 C-178.062 31.197 -178.05 24.513 -178.037 17.829 C-178.03 14.329 -178.023 10.828 -178.016 7.328 C-178.014 6.128 -178.012 4.929 -178.009 3.693 C-178.007 2.836 -178.006 1.98 -178.004 1.098 C-118.669 0.221 -59.34 -0.003 0 0 Z M-6.004 351.098 C-6.004 352.748 -6.004 354.398 -6.004 356.098 C-5.674 356.098 -5.344 356.098 -5.004 356.098 C-5.004 354.448 -5.004 352.798 -5.004 351.098 C-5.334 351.098 -5.664 351.098 -6.004 351.098 Z M-5.004 357.098 C-5.004 400.988 -5.004 444.878 -5.004 490.098 C-4.674 490.098 -4.344 490.098 -4.004 490.098 C-4.004 446.208 -4.004 402.318 -4.004 357.098 C-4.334 357.098 -4.664 357.098 -5.004 357.098 Z " fill="#1B1D21" transform="translate(272.00390625,97.90234375)"></path>
<path d="M0 0 C111.21 0 222.42 0 337 0 C337 150 337 150 336 164 C336.66 164 337.32 164 338 164 C338 165.32 338 166.64 338 168 C256.82 168 175.64 168 92 168 C92 167.67 92 167.34 92 167 C93.251 166.994 93.251 166.994 94.528 166.987 C114.861 166.884 135.194 166.775 155.527 166.661 C165.36 166.605 175.193 166.552 185.026 166.503 C193.601 166.46 202.175 166.413 210.75 166.363 C215.286 166.337 219.823 166.312 224.359 166.291 C228.637 166.271 232.915 166.247 237.193 166.22 C238.755 166.21 240.318 166.203 241.88 166.197 C255.004 166.387 255.004 166.387 268 165 C268.33 164.34 268.66 163.68 269 163 C269.66 163 270.32 163 271 163 C270.67 162.34 270.34 161.68 270 161 C269.34 161.33 268.68 161.66 268 162 C267.67 155.4 267.34 148.8 267 142 C266.34 142 265.68 142 265 142 C263.479 138.958 263.626 135.72 263.438 132.375 C263.394 131.669 263.351 130.962 263.307 130.234 C263.201 128.49 263.1 126.745 263 125 C260.669 125.959 260.669 125.959 259 129 C256.896 125.549 256.743 122.814 256.734 118.809 C256.732 117.617 256.729 116.425 256.727 115.197 C256.734 113.957 256.742 112.716 256.75 111.438 C256.742 110.193 256.735 108.948 256.727 107.666 C256.73 105.88 256.73 105.88 256.734 104.059 C256.737 102.969 256.739 101.879 256.741 100.756 C257 98 257 98 259 95 C259.331 92.388 259.556 89.872 259.688 87.25 C259.735 86.559 259.782 85.868 259.83 85.156 C260.091 80.613 259.78 76.483 259 72 C257.969 78.699 257.917 85.231 258 92 C244.33 93.129 230.708 93.116 217 93.062 C214.76 93.057 212.521 93.053 210.281 93.049 C204.854 93.038 199.427 93.021 194 93 C194.99 93.33 195.98 93.66 197 94 C197 96.31 197 98.62 197 101 C195.68 101 194.36 101 193 101 C193 102.32 193 103.64 193 105 C191.02 105 189.04 105 187 105 C186.01 106.98 186.01 106.98 185 109 C184.01 109 183.02 109 182 109 C182 109.99 182 110.98 182 112 C177.05 112 172.1 112 167 112 C167 113.32 167 114.64 167 116 C164.69 116 162.38 116 160 116 C160 117.32 160 118.64 160 120 C155.05 119.67 150.1 119.34 145 119 C145 120.65 145 122.3 145 124 C135.1 124 125.2 124 115 124 C115 124.99 115 125.98 115 127 C112.69 127 110.38 127 108 127 C108 128.32 108 129.64 108 131 C103.05 131 98.1 131 93 131 C92.027 122.926 91.881 115.002 91.938 106.875 C91.942 105.632 91.947 104.39 91.951 103.109 C91.963 100.073 91.979 97.036 92 94 C98.935 92.144 104.922 91.856 112.062 92.312 C113.004 92.361 113.946 92.409 114.916 92.459 C120.317 92.756 125.642 93.262 131 94 C130.67 92.35 130.34 90.7 130 89 C117.885 89.405 105.96 89.898 94 92 C93.67 91.34 93.34 90.68 93 90 C78.48 90 63.96 90 49 90 C49 88.68 49 87.36 49 86 C44.05 86 39.1 86 34 86 C34 85.01 34 84.02 34 83 C26.74 83 19.48 83 12 83 C12 81.68 12 80.36 12 79 C10.721 79 9.442 79 8.125 79 C6.083 79 4.042 79 2 79 C1.67 124.87 1.34 170.74 1 218 C0.67 218 0.34 218 0 218 C0 146.06 0 74.12 0 0 Z " fill="#0F1214" transform="translate(174,178)"></path>
<path d="M0 0 C0.892 0 1.784 0 2.704 0 C25.677 0.001 48.65 0.012 71.623 0.026 C84.953 0.034 98.284 0.039 111.615 0.043 C113.042 0.043 113.042 0.043 114.498 0.044 C119.274 0.045 124.051 0.046 128.827 0.047 C167.884 0.058 206.94 0.075 245.996 0.098 C246.147 29.236 246.292 58.375 246.429 87.514 C246.446 90.962 246.462 94.41 246.478 97.858 C246.482 98.544 246.485 99.23 246.488 99.938 C246.541 111.019 246.597 122.101 246.655 133.183 C246.714 144.573 246.77 155.962 246.821 167.352 C246.85 173.741 246.881 180.131 246.917 186.52 C246.95 192.545 246.978 198.571 247.003 204.596 C247.013 206.797 247.024 208.997 247.038 211.197 C247.099 221.138 247.113 231.053 246.557 240.981 C246.518 241.695 246.479 242.409 246.439 243.145 C246.125 247.969 246.125 247.969 244.996 249.098 C243.646 249.194 242.291 249.221 240.937 249.221 C240.058 249.223 239.178 249.225 238.271 249.227 C236.805 249.222 236.805 249.222 235.309 249.218 C233.764 249.219 233.764 249.219 232.188 249.22 C228.709 249.222 225.229 249.217 221.75 249.211 C219.267 249.211 216.784 249.211 214.301 249.212 C208.941 249.212 203.581 249.209 198.221 249.203 C190.471 249.195 182.721 249.193 174.972 249.191 C162.399 249.189 149.827 249.183 137.255 249.173 C125.039 249.164 112.823 249.157 100.607 249.153 C99.855 249.152 99.102 249.152 98.327 249.152 C94.552 249.15 90.778 249.149 87.003 249.148 C55.667 249.138 24.332 249.12 -7.004 249.098 C-7.004 248.768 -7.004 248.438 -7.004 248.098 C74.506 248.098 156.016 248.098 239.996 248.098 C239.666 246.778 239.336 245.458 238.996 244.098 C239.326 189.648 239.656 135.198 239.996 79.098 C130.436 79.098 20.876 79.098 -92.004 79.098 C-92.004 78.768 -92.004 78.438 -92.004 78.098 C-48.774 77.768 -5.544 77.438 38.996 77.098 C28.807 77.118 18.619 77.139 8.121 77.16 C-13 77.185 -34.115 77.122 -55.234 76.84 C-56.608 76.822 -56.608 76.822 -58.009 76.803 C-66.977 76.684 -75.946 76.555 -84.913 76.407 C-100.979 76.146 -116.947 75.985 -132.999 76.86 C-141.1 77.287 -149.207 77.17 -157.316 77.098 C-160.458 77.071 -163.6 77.051 -166.742 77.035 C-167.447 77.027 -168.152 77.019 -168.878 77.01 C-172.565 76.938 -172.565 76.938 -176.004 78.098 C-179.902 70.302 -178.135 58.515 -178.102 50.023 C-178.101 48.776 -178.1 47.529 -178.099 46.245 C-178.096 43.457 -178.09 40.669 -178.082 37.881 C-178.062 31.197 -178.05 24.513 -178.037 17.829 C-178.03 14.329 -178.023 10.828 -178.016 7.328 C-178.014 6.128 -178.012 4.929 -178.009 3.693 C-178.007 2.836 -178.006 1.98 -178.004 1.098 C-118.669 0.221 -59.34 -0.003 0 0 Z " fill="#6C6C6C" transform="translate(272.00390625,97.90234375)"></path>
<path d="M0 0 C0.33 0 0.66 0 1 0 C1 32.67 1 65.34 1 99 C112.54 99 224.08 99 339 99 C339 100.32 339 101.64 339 103 C228.78 103 118.56 103 5 103 C5.33 103.99 5.66 104.98 6 106 C6.094 108.115 6.126 110.232 6.127 112.349 C6.129 113.32 6.129 113.32 6.132 114.311 C6.136 116.486 6.133 118.661 6.129 120.836 C6.131 122.396 6.133 123.955 6.135 125.515 C6.139 129.767 6.137 134.02 6.134 138.272 C6.132 142.76 6.134 147.248 6.136 151.736 C6.138 159.314 6.135 166.892 6.13 174.47 C6.125 183.118 6.127 191.767 6.132 200.416 C6.137 207.902 6.137 215.388 6.135 222.874 C6.133 227.316 6.133 231.758 6.136 236.199 C6.153 261.48 5.724 286.73 5 312 C4.01 312 3.02 312 2 312 C2 296.82 2 281.64 2 266 C-28.03 265.67 -58.06 265.34 -89 265 C-89 208.9 -89 152.8 -89 95 C-88.67 95 -88.34 95 -88 95 C-87.977 95.905 -87.954 96.81 -87.931 97.742 C-87.714 106.304 -87.494 114.865 -87.27 123.427 C-87.154 127.828 -87.041 132.229 -86.93 136.629 C-86.823 140.883 -86.712 145.136 -86.599 149.39 C-86.557 151.006 -86.516 152.622 -86.476 154.238 C-86.214 165.66 -86.214 165.66 -85.102 177.025 C-85 179 -85 179 -85.537 181.136 C-86.233 183.075 -86.233 183.075 -85 185 C-84.96 187 -84.957 189 -85 191 C-84.34 188.69 -83.68 186.38 -83 184 C-82.34 184 -81.68 184 -81 184 C-81.036 183.405 -81.071 182.809 -81.108 182.196 C-81.265 179.506 -81.414 176.815 -81.562 174.125 C-81.619 173.188 -81.675 172.251 -81.732 171.285 C-81.781 170.389 -81.829 169.493 -81.879 168.57 C-81.926 167.743 -81.973 166.915 -82.022 166.063 C-82 164 -82 164 -81 162 C-81.99 162 -82.98 162 -84 162 C-84 159.69 -84 157.38 -84 155 C-81.69 154.67 -79.38 154.34 -77 154 C-77 151.69 -77 149.38 -77 147 C-78.32 147 -79.64 147 -81 147 C-81 144.69 -81 142.38 -81 140 C-79.68 140 -78.36 140 -77 140 C-77 136.7 -77 133.4 -77 130 C-76.01 129.67 -75.02 129.34 -74 129 C-72.523 125.51 -72.928 121.726 -73 118 C-72.01 118 -71.02 118 -70 118 C-70 120.31 -70 122.62 -70 125 C-68.68 125 -67.36 125 -66 125 C-66 122.36 -66 119.72 -66 117 C-64.68 117 -63.36 117 -62 117 C-62.072 115.808 -62.144 114.615 -62.219 113.387 C-62.313 111.82 -62.406 110.254 -62.5 108.688 C-62.548 107.902 -62.595 107.116 -62.645 106.307 C-62.69 105.549 -62.735 104.792 -62.781 104.012 C-62.823 103.315 -62.865 102.619 -62.908 101.901 C-63.132 97.264 -63.132 97.264 -62 95 C-60.68 95 -59.36 95 -58 95 C-58 92.69 -58 90.38 -58 88 C-57.01 88 -56.02 88 -55 88 C-55 85.69 -55 83.38 -55 81 C-52.36 80.67 -49.72 80.34 -47 80 C-47.052 78.952 -47.052 78.952 -47.105 77.883 C-47.133 76.973 -47.16 76.063 -47.188 75.125 C-47.24 73.768 -47.24 73.768 -47.293 72.383 C-47.148 71.203 -47.148 71.203 -47 70 C-46.01 69.34 -45.02 68.68 -44 68 C-43.75 65.416 -43.75 65.416 -44 63 C-39.25 61 -39.25 61 -37 61 C-37 60.34 -37 59.68 -37 59 C-37.99 58.67 -38.98 58.34 -40 58 C-40 56.35 -40 54.7 -40 53 C-39.01 52.67 -38.02 52.34 -37 52 C-36.67 50.35 -36.34 48.7 -36 47 C-35.01 47.33 -34.02 47.66 -33 48 C-33 48.99 -33 49.98 -33 51 C-32.01 51 -31.02 51 -30 51 C-30.495 49.02 -30.495 49.02 -31 47 C-30.01 46.67 -29.02 46.34 -28 46 C-27.67 45.01 -27.34 44.02 -27 43 C-27.66 43 -28.32 43 -29 43 C-29 42.01 -29 41.02 -29 40 C-26.36 39.67 -23.72 39.34 -21 39 C-21.33 38.01 -21.66 37.02 -22 36 C-21.01 36 -20.02 36 -19 36 C-19 32.7 -19 29.4 -19 26 C-17.68 25.34 -16.36 24.68 -15 24 C-14.505 22.515 -14.505 22.515 -14 21 C-12.35 21 -10.7 21 -9 21 C-8.67 18.69 -8.34 16.38 -8 14 C-7.34 14 -6.68 14 -6 14 C-5.67 13.01 -5.34 12.02 -5 11 C-4.34 11 -3.68 11 -3 11 C-2.01 7.37 -1.02 3.74 0 0 Z M-55 88 C-54.67 89.32 -54.34 90.64 -54 92 C-53.01 91.67 -52.02 91.34 -51 91 C-51.33 90.01 -51.66 89.02 -52 88 C-52.99 88 -53.98 88 -55 88 Z M3 102 C3 103.65 3 105.3 3 107 C3.33 107 3.66 107 4 107 C4 105.35 4 103.7 4 102 C3.67 102 3.34 102 3 102 Z M4 108 C4 151.89 4 195.78 4 241 C4.33 241 4.66 241 5 241 C5 197.11 5 153.22 5 108 C4.67 108 4.34 108 4 108 Z M-71 125 C-72.03 129.534 -72.178 130.645 -70 135 C-70 131.7 -70 128.4 -70 125 C-70.33 125 -70.66 125 -71 125 Z " fill="#111416" transform="translate(263,347)"></path>
<path d="M0 0 C85.47 0 170.94 0 259 0 C258.34 0.33 257.68 0.66 257 1 C257.002 1.835 257.004 2.67 257.007 3.53 C257.027 11.485 257.042 19.441 257.052 27.396 C257.057 31.484 257.064 35.572 257.075 39.659 C257.171 74.411 257.171 74.411 256 90 C252.604 90.087 249.209 90.141 245.812 90.188 C244.853 90.213 243.893 90.238 242.904 90.264 C234.112 90.355 234.112 90.355 230 87 C230.33 86.34 230.66 85.68 231 85 C230.394 82.981 229.731 80.977 229 79 C228.01 79 227.02 79 226 79 C225.875 71.25 225.875 71.25 227 69 C226.361 68.732 225.721 68.464 225.062 68.188 C223 67 223 67 222 64 C222.33 63.01 222.66 62.02 223 61 C222.072 61.227 221.144 61.454 220.188 61.688 C217 62 217 62 215.125 60.688 C214 59 214 59 214 57 C210.7 57 207.4 57 204 57 C204 55.68 204 54.36 204 53 C194.43 53 184.86 53 175 53 C175 53.66 175 54.32 175 55 C174.168 54.677 173.336 54.353 172.479 54.02 C168.693 52.91 165.248 52.693 161.342 52.681 C160.6 52.671 159.858 52.661 159.093 52.651 C156.659 52.62 154.224 52.603 151.789 52.586 C150.094 52.567 148.398 52.548 146.703 52.527 C142.254 52.476 137.806 52.436 133.357 52.399 C128.812 52.359 124.268 52.308 119.723 52.258 C110.815 52.161 101.908 52.077 93 52 C93 51.01 93 50.02 93 49 C88.71 49 84.42 49 80 49 C79.505 49.99 79.505 49.99 79 51 C79 50.34 79 49.68 79 49 C64.15 49 49.3 49 34 49 C34 49.66 34 50.32 34 51 C29.05 51 24.1 51 19 51 C19 50.01 19 49.02 19 48 C18.402 48.186 17.804 48.371 17.188 48.562 C15 49 15 49 12 48 C12 47.01 12 46.02 12 45 C10.639 45.773 10.639 45.773 9.25 46.562 C6 48 6 48 2 47 C1.67 52.61 1.34 58.22 1 64 C0.67 64 0.34 64 0 64 C0 42.88 0 21.76 0 0 Z " fill="#000101" transform="translate(174,178)"></path>
<path d="M0 0 C13.86 0 27.72 0 42 0 C42 75.24 42 150.48 42 228 C41.67 226.68 41.34 225.36 41 224 C40.34 224 39.68 224 39 224 C39.005 224.692 39.01 225.383 39.016 226.095 C39.037 229.209 39.05 232.323 39.062 235.438 C39.071 236.526 39.079 237.615 39.088 238.736 C39.091 239.771 39.094 240.805 39.098 241.871 C39.103 242.829 39.108 243.788 39.114 244.775 C39 247 39 247 38 248 C34.814 248.098 31.651 248.13 28.465 248.12 C27.451 248.121 26.438 248.122 25.393 248.123 C21.969 248.125 18.545 248.119 15.121 248.114 C12.677 248.113 10.234 248.113 7.79 248.114 C2.516 248.114 -2.759 248.111 -8.034 248.106 C-15.661 248.098 -23.288 248.095 -30.915 248.094 C-43.287 248.092 -55.66 248.085 -68.032 248.075 C-80.054 248.066 -92.076 248.059 -104.098 248.055 C-105.209 248.055 -105.209 248.055 -106.342 248.054 C-110.057 248.053 -113.771 248.052 -117.486 248.05 C-148.324 248.04 -179.162 248.022 -210 248 C-210 247.67 -210 247.34 -210 247 C-128.49 247 -46.98 247 37 247 C36.67 245.68 36.34 244.36 36 243 C35.921 240.753 35.902 238.503 35.918 236.255 C35.921 235.578 35.924 234.901 35.927 234.203 C35.94 231.935 35.959 229.667 35.978 227.399 C35.988 225.773 35.998 224.147 36.007 222.521 C36.034 218.106 36.067 213.691 36.101 209.276 C36.135 204.662 36.163 200.049 36.193 195.435 C36.249 186.698 36.31 177.961 36.373 169.224 C36.458 157.418 36.536 145.611 36.613 133.805 C36.735 115.203 36.869 96.602 37 78 C10.93 78 -15.14 78 -42 78 C-42 77.67 -42 77.34 -42 77 C-39.36 76.67 -36.72 76.34 -34 76 C-35.134 76.021 -36.269 76.041 -37.438 76.062 C-41 76 -41 76 -42 75 C-42.237 72.308 -42.422 69.635 -42.562 66.938 C-42.627 65.8 -42.627 65.8 -42.693 64.639 C-42.8 62.759 -42.9 60.88 -43 59 C-43.557 59.012 -44.114 59.023 -44.688 59.035 C-45.451 59.044 -46.214 59.053 -47 59.062 C-47.743 59.074 -48.485 59.086 -49.25 59.098 C-52.16 58.994 -55 58.629 -57.885 58.247 C-61.331 57.844 -64.785 57.715 -68.25 57.562 C-75.962 57.192 -83.609 56.491 -91.274 55.573 C-95.773 55.07 -99.523 55.06 -104 56 C-106.312 55.75 -106.312 55.75 -108 55 C-108.33 54.01 -108.66 53.02 -109 52 C-108.01 51.01 -108.01 51.01 -107 50 C-106.01 50 -105.02 50 -104 50 C-104 49.01 -104 48.02 -104 47 C-102.68 47 -101.36 47 -100 47 C-100 42.05 -100 37.1 -100 32 C-97.69 32 -95.38 32 -93 32 C-93.33 26.39 -93.66 20.78 -94 15 C-95.65 15 -97.3 15 -99 15 C-98.01 15.99 -97.02 16.98 -96 18 C-96.33 18.66 -96.66 19.32 -97 20 C-99.31 20 -101.62 20 -104 20 C-104.495 18.02 -104.495 18.02 -105 16 C-106.32 16 -107.64 16 -109 16 C-108.67 15.34 -108.34 14.68 -108 14 C-106.68 14.33 -105.36 14.66 -104 15 C-104 14.34 -104 13.68 -104 13 C-102.859 12.977 -101.719 12.954 -100.543 12.931 C-89.76 12.714 -78.976 12.494 -68.193 12.27 C-62.65 12.154 -57.107 12.04 -51.564 11.93 C-46.208 11.823 -40.852 11.712 -35.497 11.599 C-33.46 11.557 -31.423 11.516 -29.386 11.476 C-14.665 11.233 -14.665 11.233 0 10 C-0.33 9.01 -0.66 8.02 -1 7 C1.64 6.67 4.28 6.34 7 6 C6.67 5.01 6.34 4.02 6 3 C6 2.67 6 2.34 6 2 C4.02 1.67 2.04 1.34 0 1 C0 0.67 0 0.34 0 0 Z M4 4 C6 5 6 5 6 5 Z " fill="#545454" transform="translate(475,99)"></path>
<path d="M0 0 C23.1 0 46.2 0 70 0 C70.04 37.052 70.04 37.052 70.049 52.637 C70.055 63.377 70.062 74.117 70.075 84.857 C70.085 92.681 70.092 100.504 70.094 108.328 C70.095 112.465 70.098 116.603 70.106 120.74 C70.113 124.646 70.115 128.551 70.113 132.456 C70.113 133.879 70.115 135.302 70.119 136.725 C70.143 145.873 69.776 154.886 69 164 C69.66 164 70.32 164 71 164 C71 165.32 71 166.64 71 168 C48.89 168 26.78 168 4 168 C4 167.67 4 167.34 4 167 C4.588 166.98 5.176 166.96 5.781 166.94 C17.633 166.522 29.282 165.88 41 164 C41 163.34 41 162.68 41 162 C40.01 162 39.02 162 38 162 C38 161.34 38 160.68 38 160 C38.99 160 39.98 160 41 160 C41 155.38 41 150.76 41 146 C40.01 146 39.02 146 38 146 C37.25 141.999 36.88 138.233 36.902 134.164 C36.906 133.101 36.909 132.037 36.912 130.941 C36.925 129.3 36.925 129.3 36.938 127.625 C36.942 126.507 36.947 125.39 36.951 124.238 C36.963 121.492 36.979 118.746 37 116 C36.01 116 35.02 116 34 116 C34 107.42 34 98.84 34 90 C33.34 90 32.68 90 32 90 C32 89.01 32 88.02 32 87 C31.34 87 30.68 87 30 87 C30 82.05 30 77.1 30 72 C29.34 72 28.68 72 28 72 C28 67.05 28 62.1 28 57 C27.34 57 26.68 57 26 57 C26 52.05 26 47.1 26 42 C24.68 42 23.36 42 22 42 C22 39.69 22 37.38 22 35 C21.01 35 20.02 35 19 35 C19 30.05 19 25.1 19 20 C18.34 20 17.68 20 17 20 C17 17.69 17 15.38 17 13 C16.041 12.629 16.041 12.629 15.062 12.25 C14.042 11.631 14.042 11.631 13 11 C12.856 10.34 12.711 9.68 12.562 9 C12.377 8.34 12.191 7.68 12 7 C9.51 5.703 9.51 5.703 7 5 C7.33 4.34 7.66 3.68 8 3 C6.866 2.876 5.731 2.752 4.562 2.625 C3.387 2.419 2.211 2.213 1 2 C0.67 1.34 0.34 0.68 0 0 Z " fill="#000101" transform="translate(441,178)"></path>
<path d="M0 0 C0.892 0 1.784 0 2.704 0 C25.677 0.001 48.65 0.012 71.623 0.026 C84.953 0.034 98.284 0.039 111.615 0.043 C113.042 0.043 113.042 0.043 114.498 0.044 C119.274 0.045 124.051 0.046 128.827 0.047 C167.884 0.058 206.94 0.075 245.996 0.098 C246.147 29.236 246.292 58.375 246.429 87.514 C246.446 90.962 246.462 94.41 246.478 97.858 C246.482 98.544 246.485 99.23 246.488 99.938 C246.541 111.019 246.597 122.101 246.655 133.183 C246.714 144.573 246.77 155.962 246.821 167.352 C246.85 173.741 246.881 180.131 246.917 186.52 C246.95 192.545 246.978 198.571 247.003 204.596 C247.013 206.797 247.024 208.997 247.038 211.197 C247.113 223.542 246.92 235.785 245.996 248.098 C244.346 248.428 242.696 248.758 240.996 249.098 C240.967 245.66 240.949 242.223 240.934 238.785 C240.925 237.809 240.917 236.832 240.908 235.826 C240.903 234.419 240.903 234.419 240.898 232.984 C240.891 231.688 240.891 231.688 240.883 230.366 C240.996 228.098 240.996 228.098 241.996 225.098 C242.656 225.098 243.316 225.098 243.996 225.098 C244.326 151.178 244.656 77.258 244.996 1.098 C213.914 1.242 182.832 1.386 150.809 1.535 C136.107 1.6 136.107 1.6 121.109 1.666 C112.295 1.709 112.295 1.709 103.482 1.754 C99.567 1.773 95.653 1.79 91.738 1.806 C86.734 1.826 81.729 1.85 76.724 1.878 C74.895 1.887 73.065 1.895 71.236 1.901 C55.137 0.93 55.137 0.93 39.996 4.098 C38.122 4.168 36.246 4.182 34.371 4.16 C33.368 4.151 32.365 4.142 31.332 4.133 C30.176 4.115 30.176 4.115 28.996 4.098 C28.666 5.418 28.336 6.738 27.996 8.098 C17.601 9.088 17.601 9.088 6.996 10.098 C10.296 10.428 13.596 10.758 16.996 11.098 C16.996 11.428 16.996 11.758 16.996 12.098 C-2.651 13.337 -22.291 13.23 -41.966 13.199 C-46.728 13.193 -51.49 13.192 -56.252 13.191 C-65.233 13.188 -74.213 13.18 -83.194 13.17 C-93.434 13.158 -103.674 13.153 -113.913 13.148 C-134.944 13.138 -155.974 13.12 -177.004 13.098 C-176.887 20.2 -176.762 27.303 -176.632 34.405 C-176.588 36.823 -176.546 39.242 -176.507 41.66 C-176.449 45.128 -176.385 48.595 -176.32 52.062 C-176.304 53.151 -176.287 54.24 -176.27 55.361 C-176.25 56.362 -176.23 57.363 -176.209 58.394 C-176.194 59.28 -176.178 60.166 -176.162 61.079 C-176.224 63.094 -176.224 63.094 -175.004 64.098 C-173.342 64.162 -171.677 64.155 -170.014 64.119 C-168.941 64.099 -167.869 64.079 -166.763 64.059 C-165.586 64.031 -164.408 64.004 -163.195 63.977 C-161.979 63.953 -160.764 63.929 -159.511 63.905 C-156.894 63.854 -154.276 63.801 -151.659 63.745 C-144.837 63.602 -138.014 63.482 -131.191 63.359 C-130.519 63.347 -129.847 63.335 -129.154 63.323 C-104.848 62.884 -80.588 63.063 -56.287 63.674 C-42.859 64.008 -29.432 64.236 -16.001 64.424 C81.398 65.789 81.398 65.789 117.809 68.473 C118.921 68.549 118.921 68.549 120.057 68.628 C147.483 70.585 147.483 70.585 151.996 75.098 C153.729 75.314 153.729 75.314 155.496 75.535 C156.651 75.721 157.806 75.906 158.996 76.098 C159.326 76.758 159.656 77.418 159.996 78.098 C142.23 78.149 124.467 78.154 106.703 77.879 C105.989 77.868 105.276 77.857 104.54 77.846 C101.593 77.8 98.645 77.754 95.698 77.706 C65.584 77.225 35.481 77.036 5.364 77.103 C-14.938 77.149 -35.234 77.113 -55.535 76.844 C-56.466 76.832 -57.397 76.819 -58.357 76.807 C-67.379 76.687 -76.4 76.557 -85.422 76.407 C-101.307 76.145 -117.106 75.998 -132.979 76.86 C-141.087 77.286 -149.201 77.17 -157.316 77.098 C-160.458 77.071 -163.6 77.051 -166.742 77.035 C-167.447 77.027 -168.152 77.019 -168.878 77.01 C-172.565 76.938 -172.565 76.938 -176.004 78.098 C-179.902 70.302 -178.135 58.515 -178.102 50.023 C-178.101 48.776 -178.1 47.529 -178.099 46.245 C-178.096 43.457 -178.09 40.669 -178.082 37.881 C-178.062 31.197 -178.05 24.513 -178.037 17.829 C-178.03 14.329 -178.023 10.828 -178.016 7.328 C-178.014 6.128 -178.012 4.929 -178.009 3.693 C-178.007 2.836 -178.006 1.98 -178.004 1.098 C-118.669 0.221 -59.34 -0.003 0 0 Z " fill="#A4A5A6" transform="translate(272.00390625,97.90234375)"></path>
<path d="M0 0 C0.33 0.33 0.66 0.66 1 1 C2.347 1.231 3.704 1.412 5.062 1.562 C6.362 1.707 7.661 1.851 9 2 C8.67 2.99 8.34 3.98 8 5 C9.176 5.34 9.176 5.34 10.375 5.688 C13 7 13 7 14.188 9.562 C14.59 10.769 14.59 10.769 15 12 C15.99 12.495 15.99 12.495 17 13 C17 15.31 17 17.62 17 20 C17.66 20 18.32 20 19 20 C19 24.95 19 29.9 19 35 C19.99 35 20.98 35 22 35 C22 37.31 22 39.62 22 42 C23.32 42 24.64 42 26 42 C26 46.95 26 51.9 26 57 C26.66 57 27.32 57 28 57 C28 61.95 28 66.9 28 72 C28.66 72 29.32 72 30 72 C30 76.95 30 81.9 30 87 C30.66 87 31.32 87 32 87 C32 87.99 32 88.98 32 90 C32.66 90 33.32 90 34 90 C34 98.58 34 107.16 34 116 C34.99 116 35.98 116 37 116 C37.33 125.9 37.66 135.8 38 146 C38.99 146 39.98 146 41 146 C41 150.62 41 155.24 41 160 C40.01 160 39.02 160 38 160 C38 160.66 38 161.32 38 162 C38.99 162 39.98 162 41 162 C41 162.66 41 163.32 41 164 C42.32 164.33 43.64 164.66 45 165 C41.542 165.318 38.084 165.628 34.625 165.938 C33.679 166.025 32.733 166.112 31.758 166.201 C16.339 167.571 0.997 168.149 -14.475 168.114 C-16.241 168.113 -18.007 168.113 -19.774 168.114 C-24.506 168.114 -29.238 168.108 -33.97 168.101 C-38.939 168.095 -43.908 168.095 -48.877 168.093 C-58.258 168.09 -67.639 168.082 -77.02 168.072 C-87.712 168.061 -98.404 168.055 -109.095 168.05 C-131.064 168.04 -153.032 168.022 -175 168 C-175 167.67 -175 167.34 -175 167 C-173.749 166.994 -173.749 166.994 -172.472 166.987 C-152.139 166.884 -131.806 166.775 -111.473 166.661 C-101.64 166.605 -91.807 166.552 -81.974 166.503 C-73.399 166.46 -64.825 166.413 -56.25 166.363 C-51.714 166.337 -47.177 166.312 -42.641 166.291 C-38.363 166.271 -34.085 166.247 -29.807 166.22 C-28.245 166.21 -26.682 166.203 -25.12 166.197 C-11.996 166.387 -11.996 166.387 1 165 C1.33 164.34 1.66 163.68 2 163 C2.66 163 3.32 163 4 163 C3.67 162.34 3.34 161.68 3 161 C2.34 161.33 1.68 161.66 1 162 C0.67 155.4 0.34 148.8 0 142 C-0.66 142 -1.32 142 -2 142 C-3.521 138.958 -3.374 135.72 -3.562 132.375 C-3.606 131.669 -3.649 130.962 -3.693 130.234 C-3.799 128.49 -3.9 126.745 -4 125 C-6.331 125.959 -6.331 125.959 -8 129 C-10.104 125.549 -10.257 122.814 -10.266 118.809 C-10.268 117.617 -10.271 116.425 -10.273 115.197 C-10.266 113.957 -10.258 112.716 -10.25 111.438 C-10.258 110.193 -10.265 108.948 -10.273 107.666 C-10.271 106.476 -10.268 105.285 -10.266 104.059 C-10.263 102.969 -10.261 101.879 -10.259 100.756 C-10 98 -10 98 -8 95 C-7.669 92.388 -7.444 89.872 -7.312 87.25 C-7.265 86.559 -7.218 85.868 -7.17 85.156 C-6.909 80.613 -7.22 76.483 -8 72 C-8.66 74.31 -9.32 76.62 -10 79 C-10.33 79 -10.66 79 -11 79 C-10.505 40.39 -10.505 40.39 -10 1 C-6.747 -0.627 -3.608 -0.115 0 0 Z " fill="#0F1214" transform="translate(441,178)"></path>
<path d="M0 0 C1.812 0.002 1.812 0.002 3.661 0.005 C85.199 0.124 167.154 0.248 248.562 5.125 C249.229 5.164 249.896 5.203 250.583 5.243 C254.766 5.488 258.946 5.763 263.125 6.062 C264.509 6.156 264.509 6.156 265.922 6.252 C272.588 6.802 279.226 7.935 285.562 10.125 C287.041 13.082 286.623 15.867 286.562 19.125 C282.214 18.73 278.366 18.159 274.25 16.688 C264.473 13.24 254.019 12.478 243.75 11.625 C242.993 11.562 242.237 11.499 241.457 11.434 C194.531 7.646 147.076 7.939 100.028 7.291 C90.918 7.164 81.808 7.011 72.699 6.844 C71.407 6.82 70.115 6.797 68.784 6.772 C63.822 6.681 58.859 6.59 53.897 6.495 C29.684 6.033 5.519 6.157 -18.693 6.589 C-22.174 6.65 -25.654 6.71 -29.135 6.77 C-35.902 6.886 -42.67 7.005 -49.438 7.125 C-49.767 5.145 -50.097 3.165 -50.438 1.125 C-33.616 0.326 -16.839 -0.039 0 0 Z M34.562 20.125 C117.723 20.125 200.883 20.125 286.562 20.125 C286.562 20.455 286.562 20.785 286.562 21.125 C203.402 21.125 120.242 21.125 34.562 21.125 C34.562 20.795 34.562 20.465 34.562 20.125 Z " fill="#8B8C8C" transform="translate(145.4375,155.875)"></path>
<path d="M0 0 C1.642 -0.004 3.284 -0.008 4.926 -0.012 C9.301 -0.022 13.676 -0.023 18.051 -0.021 C20.795 -0.02 23.539 -0.02 26.283 -0.021 C47.402 -0.02 68.464 0.143 89.558 1.244 C115.717 2.585 141.915 2.595 168.102 2.803 C204.532 3.092 204.532 3.092 222.586 3.633 C224.512 3.689 224.512 3.689 226.476 3.747 C236.881 4.088 247.299 4.442 257.574 6.195 C264.819 7.38 272.006 7.579 279.336 7.73 C287.651 7.926 295.887 8.16 304.148 9.168 C304.148 9.498 304.148 9.828 304.148 10.168 C288.211 10.223 272.279 10.196 256.344 9.949 C255.629 9.938 254.914 9.927 254.178 9.916 C251.205 9.87 248.233 9.824 245.26 9.777 C215.01 9.301 184.771 9.106 154.518 9.174 C134.215 9.219 113.918 9.183 93.617 8.914 C92.686 8.902 91.755 8.89 90.796 8.877 C81.774 8.757 72.752 8.627 63.731 8.477 C47.845 8.215 32.046 8.068 16.173 8.93 C8.065 9.356 -0.048 9.24 -8.164 9.168 C-11.306 9.141 -14.448 9.122 -17.59 9.105 C-18.295 9.097 -19 9.089 -19.726 9.08 C-23.412 9.008 -23.412 9.008 -26.852 10.168 C-28.33 7.211 -27.912 4.426 -27.852 1.168 C-18.569 0.079 -9.33 0.006 0 0 Z " fill="#B6B8B8" transform="translate(122.8515625,165.83203125)"></path>
<path d="M0 0 C0.33 0 0.66 0 1 0 C1.025 0.752 1.05 1.504 1.076 2.279 C1.192 5.665 1.314 9.051 1.438 12.438 C1.477 13.622 1.516 14.806 1.557 16.025 C1.599 17.15 1.64 18.275 1.684 19.434 C1.72 20.476 1.757 21.518 1.795 22.592 C1.735 24.95 1.735 24.95 3 26 C4.662 26.064 6.327 26.057 7.99 26.022 C9.063 26.002 10.135 25.982 11.241 25.961 C12.418 25.934 13.595 25.907 14.809 25.879 C16.024 25.855 17.24 25.832 18.493 25.807 C21.11 25.756 23.728 25.703 26.345 25.648 C33.167 25.504 39.99 25.384 46.812 25.262 C47.485 25.25 48.157 25.237 48.85 25.225 C73.156 24.786 97.416 24.965 121.717 25.576 C135.145 25.91 148.572 26.138 162.003 26.326 C259.402 27.692 259.402 27.692 295.812 30.375 C296.554 30.426 297.296 30.477 298.061 30.53 C325.487 32.487 325.487 32.487 330 37 C331.155 37.144 332.31 37.289 333.5 37.438 C334.655 37.623 335.81 37.809 337 38 C337.33 38.66 337.66 39.32 338 40 C332.72 39.735 327.441 39.468 322.161 39.2 C320.372 39.11 318.583 39.02 316.794 38.93 C308.018 38.49 299.243 38.043 290.473 37.496 C289.311 37.424 288.15 37.353 286.953 37.279 C284 37 284 37 282.196 36.516 C271.159 33.924 258.666 34.717 247.359 34.465 C246.479 34.444 245.599 34.424 244.693 34.402 C226.346 33.973 207.998 33.79 189.647 33.635 C135.425 33.176 135.425 33.176 114 31.938 C93.536 30.758 73.064 30.807 52.572 30.812 C49.835 30.812 47.098 30.811 44.361 30.81 C40.023 30.809 35.686 30.815 31.348 30.826 C29.733 30.83 28.119 30.832 26.504 30.833 C18.278 30.841 10.178 30.985 2 32 C0.143 28.051 -0.237 24.952 -0.195 20.605 C-0.189 19.403 -0.182 18.201 -0.176 16.963 C-0.159 15.717 -0.142 14.471 -0.125 13.188 C-0.116 11.922 -0.107 10.657 -0.098 9.354 C-0.074 6.235 -0.041 3.118 0 0 Z " fill="#A2A3A4" transform="translate(94,136)"></path>
<path d="M0 0 C3.3 0 6.6 0 10 0 C10 5.61 10 11.22 10 17 C10.33 17 10.66 17 11 17 C11 28.88 11 40.76 11 53 C8.69 53 6.38 53 4 53 C4 53.66 4 54.32 4 55 C6.97 54.505 6.97 54.505 10 54 C9.505 54.99 9.505 54.99 9 56 C5.292 56.029 1.583 56.047 -2.125 56.062 C-3.172 56.071 -4.218 56.079 -5.297 56.088 C-15.716 56.121 -15.716 56.121 -20 55 C-21.868 52.453 -22 51.191 -22 48 C-23.98 48.495 -23.98 48.495 -26 49 C-26 47.68 -26 46.36 -26 45 C-24.515 44.505 -24.515 44.505 -23 44 C-22.67 39.05 -22.34 34.1 -22 29 C-18.37 29 -14.74 29 -11 29 C-11 21.74 -11 14.48 -11 7 C-7.37 7 -3.74 7 0 7 C0 4.69 0 2.38 0 0 Z " fill="#191B1F" transform="translate(253,554)"></path>
<path d="M0 0 C2.043 0.002 4.085 0.003 6.128 0.004 C11.458 0.008 16.787 0.018 22.117 0.029 C27.574 0.039 33.031 0.044 38.488 0.049 C49.161 0.059 59.835 0.077 70.508 0.098 C70.508 0.428 70.508 0.758 70.508 1.098 C65.888 1.098 61.268 1.098 56.508 1.098 C56.508 1.758 56.508 2.418 56.508 3.098 C54.198 3.428 51.888 3.758 49.508 4.098 C50.498 4.758 51.488 5.418 52.508 6.098 C47.437 6.809 42.626 7.204 37.508 7.098 C37.508 8.088 37.508 9.078 37.508 10.098 C39.818 10.098 42.128 10.098 44.508 10.098 C44.508 10.428 44.508 10.758 44.508 11.098 C28 12.297 11.462 12.428 -5.081 12.626 C-7.6 12.657 -10.118 12.688 -12.637 12.72 C-54.777 13.244 -96.918 13.217 -139.061 13.17 C-149.621 13.158 -160.181 13.153 -170.741 13.148 C-192.325 13.138 -213.908 13.12 -235.492 13.098 C-235.492 12.768 -235.492 12.438 -235.492 12.098 C-234.702 12.094 -233.912 12.091 -233.098 12.088 C-213.886 12.006 -194.674 11.914 -175.462 11.81 C-166.171 11.76 -156.881 11.714 -147.59 11.676 C-139.493 11.643 -131.396 11.603 -123.3 11.555 C-119.012 11.53 -114.723 11.508 -110.435 11.494 C-106.4 11.481 -102.365 11.459 -98.33 11.43 C-96.849 11.421 -95.367 11.416 -93.885 11.413 C-91.863 11.41 -89.841 11.393 -87.82 11.376 C-86.122 11.368 -86.122 11.368 -84.389 11.359 C-81.513 11.1 -79.963 10.502 -77.492 9.098 C-75.428 8.729 -73.349 8.442 -71.266 8.211 C-70.069 8.078 -68.873 7.944 -67.641 7.807 C-66.395 7.676 -65.15 7.545 -63.867 7.41 C-62.614 7.268 -61.361 7.125 -60.07 6.979 C-50.753 5.967 -50.753 5.967 -48.492 7.098 C-48.162 5.448 -47.832 3.798 -47.492 2.098 C-43.532 2.098 -39.572 2.098 -35.492 2.098 C-35.492 1.768 -35.492 1.438 -35.492 1.098 C-23.65 -0.008 -11.882 -0.032 0 0 Z " fill="#888989" transform="translate(348.4921875,98.90234375)"></path>
<path d="M0 0 C0.33 0 0.66 0 1 0 C1.33 4.95 1.66 9.9 2 15 C2.33 15 2.66 15 3 15 C3 84.63 3 154.26 3 226 C2.67 224.68 2.34 223.36 2 222 C1.34 222 0.68 222 0 222 C0.005 222.692 0.01 223.383 0.016 224.095 C0.037 227.209 0.05 230.323 0.062 233.438 C0.071 234.526 0.079 235.615 0.088 236.736 C0.091 237.771 0.094 238.805 0.098 239.871 C0.103 240.829 0.108 241.788 0.114 242.775 C0 245 0 245 -1 246 C-4.186 246.098 -7.349 246.13 -10.535 246.12 C-11.549 246.121 -12.562 246.122 -13.607 246.123 C-17.031 246.125 -20.455 246.119 -23.879 246.114 C-26.323 246.113 -28.766 246.113 -31.21 246.114 C-36.484 246.114 -41.759 246.111 -47.034 246.106 C-54.661 246.098 -62.288 246.095 -69.915 246.094 C-82.287 246.092 -94.66 246.085 -107.032 246.075 C-119.054 246.066 -131.076 246.059 -143.098 246.055 C-144.209 246.055 -144.209 246.055 -145.342 246.054 C-149.057 246.053 -152.771 246.052 -156.486 246.05 C-187.324 246.04 -218.162 246.022 -249 246 C-249 245.67 -249 245.34 -249 245 C-167.49 245 -85.98 245 -2 245 C-2.33 243.68 -2.66 242.36 -3 241 C-3.028 238.309 -3 235.652 -2.914 232.965 C-2.893 232.172 -2.872 231.379 -2.85 230.563 C-2.803 228.877 -2.755 227.192 -2.703 225.507 C-2.627 222.999 -2.559 220.491 -2.492 217.982 C-2.446 216.331 -2.399 214.679 -2.352 213.027 C-2.332 212.307 -2.312 211.586 -2.291 210.844 C-2.17 206.922 -2.001 203.012 -1.75 199.096 C-0.933 186.26 -0.95 173.483 -1.11 160.625 C-1.157 156.791 -1.197 152.957 -1.235 149.122 C-1.324 140.29 -1.423 131.458 -1.523 122.626 C-1.623 113.87 -1.717 105.114 -1.804 96.357 C-1.843 92.621 -1.889 88.885 -1.935 85.149 C-2.081 71.799 -1.844 58.543 -1.115 45.213 C-0.877 40.627 -0.776 36.037 -0.684 31.445 C-0.652 30.06 -0.652 30.06 -0.621 28.647 C-0.557 25.807 -0.497 22.966 -0.438 20.125 C-0.394 18.154 -0.35 16.182 -0.307 14.211 C-0.202 9.474 -0.1 4.737 0 0 Z " fill="#717272" transform="translate(514,101)"></path>
<path d="M0 0 C1.197 -0.003 2.394 -0.007 3.628 -0.01 C6.134 -0.015 8.641 -0.017 11.147 -0.017 C14.958 -0.02 18.769 -0.038 22.58 -0.057 C25.033 -0.06 27.485 -0.062 29.938 -0.062 C31.062 -0.07 32.186 -0.077 33.344 -0.084 C40.36 -0.064 46.915 0.663 53.77 2.168 C52.45 2.828 51.13 3.488 49.77 4.168 C49.77 4.828 49.77 5.488 49.77 6.168 C47.792 6.899 45.789 7.562 43.77 8.168 C42.78 7.673 42.78 7.673 41.77 7.168 C42.265 8.158 42.265 8.158 42.77 9.168 C44.665 9.633 44.665 9.633 46.832 9.793 C48.131 9.917 49.431 10.04 50.77 10.168 C50.77 10.498 50.77 10.828 50.77 11.168 C35.442 12.119 20.123 12.478 4.77 12.73 C2.936 12.762 2.936 12.762 1.066 12.795 C-19.034 13.142 -39.127 13.305 -59.23 13.168 C-56.641 10.579 -55.203 10.794 -51.605 10.543 C-50.603 10.468 -49.6 10.393 -48.566 10.316 C-47.41 10.243 -47.41 10.243 -46.23 10.168 C-46.23 9.178 -46.23 8.188 -46.23 7.168 C-45.182 7.112 -45.182 7.112 -44.113 7.055 C-42.748 6.956 -42.748 6.956 -41.355 6.855 C-40.451 6.797 -39.546 6.739 -38.613 6.68 C-35.868 6.38 -35.868 6.38 -34.23 3.168 C-30.605 2.98 -30.605 2.98 -27.23 3.168 C-27.23 2.508 -27.23 1.848 -27.23 1.168 C-18.14 0.423 -9.12 0.009 0 0 Z " fill="#6D6D6D" transform="translate(432.23046875,98.83203125)"></path>
<path d="M0 0 C110.22 0 220.44 0 334 0 C334 0.33 334 0.66 334 1 C223.78 1 113.56 1 0 1 C0 0.67 0 0.34 0 0 Z M-1 1 C1.382 4.574 1.249 6.106 1.247 10.349 C1.25 10.996 1.252 11.644 1.255 12.311 C1.26 14.486 1.252 16.661 1.243 18.836 C1.244 20.396 1.246 21.955 1.249 23.515 C1.254 27.767 1.246 32.02 1.236 36.272 C1.227 40.76 1.229 45.248 1.229 49.736 C1.228 57.314 1.219 64.892 1.206 72.47 C1.19 81.118 1.185 89.767 1.186 98.416 C1.186 107.721 1.179 117.027 1.17 126.332 C1.168 128.955 1.167 131.577 1.167 134.199 C1.159 159.479 0.72 184.731 0 210 C-0.33 210 -0.66 210 -1 210 C-1.995 165.331 -2.113 120.66 -2.123 75.983 C-2.124 70.489 -2.128 64.996 -2.133 59.503 C-2.139 51.99 -2.139 44.476 -2.134 36.963 C-2.133 34.145 -2.134 31.326 -2.136 28.508 C-2.14 24.62 -2.135 20.732 -2.129 16.844 C-2.131 15.694 -2.133 14.545 -2.136 13.362 C-2.133 12.312 -2.13 11.262 -2.127 10.18 C-2.127 9.27 -2.126 8.361 -2.126 7.423 C-2.007 5.143 -1.641 3.185 -1 1 Z M-1 6 C-1 49.89 -1 93.78 -1 139 C-0.67 139 -0.34 139 0 139 C0 95.11 0 51.22 0 6 C-0.33 6 -0.66 6 -1 6 Z " fill="#020303" transform="translate(268,449)"></path>
<path d="M0 0 C0.538 0.25 1.075 0.5 1.629 0.758 C0.629 3.758 0.629 3.758 -1.934 5.133 C-3.068 5.669 -4.202 6.205 -5.371 6.758 C-6.822 7.568 -8.259 8.402 -9.684 9.258 C-10.36 9.66 -11.037 10.062 -11.734 10.477 C-13.677 11.754 -13.677 11.754 -14.371 14.758 C-15.031 14.758 -15.691 14.758 -16.371 14.758 C-16.371 15.418 -16.371 16.078 -16.371 16.758 C-17.093 17.026 -17.815 17.294 -18.559 17.57 C-23.373 19.603 -26.138 20.994 -28.371 25.758 C-31.448 28.725 -34.179 29.281 -38.371 29.758 C-38.371 30.418 -38.371 31.078 -38.371 31.758 C-39.031 31.758 -39.691 31.758 -40.371 31.758 C-40.701 32.418 -41.031 33.078 -41.371 33.758 C-41.701 34.418 -42.031 35.078 -42.371 35.758 C-43.361 35.428 -44.351 35.098 -45.371 34.758 C-41.48 29.684 -37.984 26.772 -32.371 23.758 C-31.752 23.139 -31.134 22.52 -30.496 21.883 C-27.838 19.225 -24.868 17.403 -21.688 15.418 C-18.943 13.451 -16.749 11.154 -14.371 8.758 C-12.384 7.092 -10.362 5.466 -8.309 3.883 C-7.286 3.081 -6.264 2.279 -5.211 1.453 C-2.371 -0.242 -2.371 -0.242 0 0 Z M1.629 0.758 C3.629 1.758 3.629 1.758 3.629 1.758 Z M-47.371 34.758 C-46.711 35.088 -46.051 35.418 -45.371 35.758 C-46.368 38.25 -46.986 39.522 -49.309 40.945 C-50.976 41.602 -52.671 42.191 -54.371 42.758 C-54.845 43.232 -55.32 43.707 -55.809 44.195 C-57.526 45.913 -59.216 46.68 -61.371 47.758 C-61.701 48.418 -62.031 49.078 -62.371 49.758 C-63.031 50.748 -63.691 51.738 -64.371 52.758 C-65.031 52.758 -65.691 52.758 -66.371 52.758 C-66.371 53.418 -66.371 54.078 -66.371 54.758 C-67.031 54.758 -67.691 54.758 -68.371 54.758 C-69.031 55.418 -69.691 56.078 -70.371 56.758 C-71.031 56.758 -71.691 56.758 -72.371 56.758 C-74.284 58.489 -75.954 60.404 -77.684 62.32 C-80.574 64.941 -82.637 65.784 -86.371 66.758 C-89.489 67.404 -89.489 67.404 -90.371 69.758 C-91.348 70.781 -92.352 71.777 -93.371 72.758 C-94.093 73.48 -94.815 74.202 -95.559 74.945 C-96.157 75.543 -96.755 76.142 -97.371 76.758 C-98.031 76.428 -98.691 76.098 -99.371 75.758 C-97.937 72.399 -96.177 70.399 -93.434 68.008 C-92.744 67.394 -92.054 66.781 -91.344 66.148 C-89.371 64.758 -89.371 64.758 -86.371 64.758 C-86.041 63.768 -85.711 62.778 -85.371 61.758 C-83.297 60.074 -83.297 60.074 -80.684 58.32 C-79.78 57.708 -78.876 57.096 -77.945 56.465 C-77.096 55.902 -76.246 55.338 -75.371 54.758 C-74.759 54.349 -74.146 53.941 -73.516 53.52 C-73.014 53.186 -72.513 52.852 -71.996 52.508 C-70.38 51.43 -68.789 50.313 -67.246 49.133 C-65.371 47.758 -65.371 47.758 -63.434 46.883 C-61.134 45.76 -61.134 45.76 -58.934 43.258 C-56.383 40.77 -54.611 40.018 -51.371 38.758 C-51.041 37.768 -50.711 36.778 -50.371 35.758 C-49.381 35.428 -48.391 35.098 -47.371 34.758 Z M-85.371 65.758 C-83.371 66.758 -83.371 66.758 -83.371 66.758 Z M-101.371 74.758 C-100.381 75.253 -100.381 75.253 -99.371 75.758 C-99.701 76.748 -100.031 77.738 -100.371 78.758 C-102.017 79.475 -103.685 80.141 -105.371 80.758 C-106.031 81.418 -106.691 82.078 -107.371 82.758 C-107.969 83.191 -108.567 83.624 -109.184 84.07 C-111.508 85.766 -111.508 85.766 -113.684 88.258 C-116.371 90.758 -116.371 90.758 -119.871 92.195 C-124 94.038 -125.596 96.252 -128.371 99.758 C-131.532 101.97 -134.761 103.417 -138.371 104.758 C-138.371 105.418 -138.371 106.078 -138.371 106.758 C-139.361 106.758 -140.351 106.758 -141.371 106.758 C-142.496 107.883 -143.611 109.02 -144.684 110.195 C-146.371 111.758 -146.371 111.758 -149.059 113.32 C-149.822 113.795 -150.585 114.269 -151.371 114.758 C-151.371 115.418 -151.371 116.078 -151.371 116.758 C-151.963 117.061 -152.554 117.364 -153.164 117.676 C-158.714 120.618 -162.758 123.709 -166.871 128.508 C-168.889 130.19 -170.823 130.248 -173.371 130.758 C-174.954 132.007 -174.954 132.007 -176.371 133.758 C-179.251 136.785 -181.598 138.997 -185.371 140.758 C-185.907 141.294 -186.444 141.83 -186.996 142.383 C-187.45 142.837 -187.904 143.29 -188.371 143.758 C-189.031 143.758 -189.691 143.758 -190.371 143.758 C-192.535 145.79 -192.535 145.79 -194.371 148.758 C-195.031 148.428 -195.691 148.098 -196.371 147.758 C-193.175 140.501 -185.809 136.238 -179.496 131.82 C-178.925 131.419 -178.353 131.017 -177.764 130.603 C-173.619 127.758 -173.619 127.758 -171.371 127.758 C-171.041 126.768 -170.711 125.778 -170.371 124.758 C-168.227 123.293 -168.227 123.293 -165.559 121.82 C-161.911 119.8 -159.256 117.757 -156.371 114.758 C-154.745 113.38 -153.098 112.026 -151.434 110.695 C-150.6 110.024 -149.766 109.352 -148.906 108.66 C-146.371 106.758 -146.371 106.758 -143.859 105.254 C-141.199 103.654 -138.894 101.852 -136.496 99.883 C-125.199 90.758 -125.199 90.758 -121.371 90.758 C-121.371 90.098 -121.371 89.438 -121.371 88.758 C-119.281 87.023 -119.281 87.023 -116.434 85.008 C-115.438 84.301 -114.443 83.595 -113.418 82.867 C-109.437 80.111 -105.428 77.402 -101.371 74.758 Z M-135.371 102.758 C-133.371 103.758 -133.371 103.758 -133.371 103.758 Z M-150.371 113.758 C-148.371 114.758 -148.371 114.758 -148.371 114.758 Z " fill="#616262" transform="translate(259.37109375,662.2421875)"></path>
<path d="M0 0 C0.33 0 0.66 0 1 0 C1.33 4.95 1.66 9.9 2 15 C2.33 15 2.66 15 3 15 C3 58.56 3 102.12 3 147 C2.67 147 2.34 147 2 147 C1.67 142.71 1.34 138.42 1 134 C0.67 149.51 0.34 165.02 0 181 C-0.33 181 -0.66 181 -1 181 C-1.155 166.256 -1.303 151.511 -1.443 136.766 C-1.508 129.918 -1.575 123.069 -1.648 116.22 C-1.719 109.594 -1.783 102.967 -1.843 96.34 C-1.867 93.83 -1.892 91.319 -1.921 88.809 C-2.082 74.238 -1.907 59.764 -1.114 45.213 C-0.878 40.626 -0.776 36.037 -0.684 31.445 C-0.663 30.522 -0.642 29.599 -0.621 28.647 C-0.557 25.807 -0.497 22.966 -0.438 20.125 C-0.394 18.154 -0.35 16.182 -0.307 14.211 C-0.202 9.474 -0.1 4.737 0 0 Z " fill="#6D6D6D" transform="translate(514,101)"></path>
<path d="M0 0 C27.06 0 54.12 0 82 0 C80.68 0.33 79.36 0.66 78 1 C78 1.66 78 2.32 78 3 C79.32 3 80.64 3 82 3 C82 4.32 82 5.64 82 7 C26.348 9.899 26.348 9.899 19 5 C18.01 5 17.02 5 16 5 C16.33 4.34 16.66 3.68 17 3 C13.533 1.844 10.459 1.672 6.812 1.438 C5.54 1.354 4.268 1.27 2.957 1.184 C1.981 1.123 1.005 1.062 0 1 C0 0.67 0 0.34 0 0 Z " fill="#B5B7B7" transform="translate(97,99)"></path>
<path d="M0 0 C31.68 0 63.36 0 96 0 C96.15 29.139 96.296 58.277 96.433 87.416 C96.45 90.864 96.466 94.312 96.482 97.76 C96.487 98.79 96.487 98.79 96.492 99.84 C96.545 110.922 96.601 122.004 96.659 133.085 C96.718 144.475 96.773 155.864 96.825 167.254 C96.854 173.643 96.885 180.033 96.921 186.422 C96.954 192.448 96.982 198.473 97.007 204.498 C97.017 206.699 97.028 208.899 97.042 211.1 C97.117 223.445 96.924 235.687 96 248 C94.35 248.33 92.7 248.66 91 249 C90.971 245.563 90.953 242.125 90.938 238.688 C90.929 237.711 90.921 236.735 90.912 235.729 C90.909 234.791 90.906 233.853 90.902 232.887 C90.897 232.023 90.892 231.159 90.886 230.268 C91 228 91 228 92 225 C92.66 225 93.32 225 94 225 C94.33 151.08 94.66 77.16 95 1 C63.65 1 32.3 1 0 1 C0 0.67 0 0.34 0 0 Z " fill="#9D9F9F" transform="translate(422,98)"></path>
<path d="M0 0 C0.99 0.495 0.99 0.495 2 1 C0.649 5.421 -1.165 7.443 -5 10 C-5.66 10.144 -6.32 10.289 -7 10.438 C-10.134 11.319 -11.75 13.698 -14 16 C-17.751 19.027 -21.39 21.463 -26 23 C-26 23.66 -26 24.32 -26 25 C-26.99 25 -27.98 25 -29 25 C-30.125 26.125 -31.24 27.262 -32.312 28.438 C-34 30 -34 30 -36.688 31.562 C-37.451 32.037 -38.214 32.511 -39 33 C-39 33.66 -39 34.32 -39 35 C-39.592 35.303 -40.183 35.606 -40.793 35.918 C-46.343 38.86 -50.387 41.952 -54.5 46.75 C-56.518 48.432 -58.451 48.49 -61 49 C-62.583 50.249 -62.583 50.249 -64 52 C-66.88 55.028 -69.227 57.239 -73 59 C-73.536 59.536 -74.073 60.072 -74.625 60.625 C-75.079 61.079 -75.532 61.533 -76 62 C-76.66 62 -77.32 62 -78 62 C-80.163 64.033 -80.163 64.033 -82 67 C-82.66 66.67 -83.32 66.34 -84 66 C-80.804 58.743 -73.438 54.48 -67.125 50.062 C-66.554 49.661 -65.982 49.259 -65.393 48.845 C-61.247 46 -61.247 46 -59 46 C-58.67 45.01 -58.34 44.02 -58 43 C-55.855 41.535 -55.855 41.535 -53.188 40.062 C-49.54 38.042 -46.885 35.999 -44 33 C-42.374 31.622 -40.727 30.269 -39.062 28.938 C-38.228 28.266 -37.394 27.594 -36.535 26.902 C-34 25 -34 25 -31.488 23.496 C-28.828 21.897 -26.523 20.094 -24.125 18.125 C-12.828 9 -12.828 9 -9 9 C-9 8.34 -9 7.68 -9 7 C-7.031 5.273 -7.031 5.273 -4.5 3.375 C-3.665 2.743 -2.829 2.112 -1.969 1.461 C-1.319 0.979 -0.669 0.497 0 0 Z M-23 21 C-21 22 -21 22 -21 22 Z M-38 32 C-36 33 -36 33 -36 33 Z " fill="#505152" transform="translate(147,744)"></path>
<path d="M0 0 C27.06 0 54.12 0 82 0 C82.33 15.84 82.66 31.68 83 48 C81.02 48.99 81.02 48.99 79 50 C77.515 49.01 77.515 49.01 76 48 C77.65 47.34 79.3 46.68 81 46 C81 31.15 81 16.3 81 1 C73.74 1.33 66.48 1.66 59 2 C59 2.66 59 3.32 59 4 C47.917 7.319 40.632 7.446 30 3 C30 2.67 30 2.34 30 2 C15.15 1.505 15.15 1.505 0 1 C0 0.67 0 0.34 0 0 Z " fill="#9B9C9C" transform="translate(183,613)"></path>
<path d="M0 0 C-0.33 0.99 -0.66 1.98 -1 3 C-1.99 3.33 -2.98 3.66 -4 4 C-5.344 4.986 -6.676 5.988 -8 7 C-8.804 7.454 -9.609 7.908 -10.438 8.375 C-13.392 10.249 -15.564 12.5 -18 15 C-21 17 -21 17 -23 17 C-25.795 19.04 -28.173 21.181 -30.562 23.688 C-32.878 25.884 -33.901 26.656 -37 27 C-37 27.66 -37 28.32 -37 29 C-37.99 29 -38.98 29 -40 29 C-41.333 30.333 -42.646 31.688 -43.938 33.062 C-46 35 -46 35 -49 36 C-51.302 38.187 -53.489 40.408 -55.562 42.812 C-57 44 -57 44 -61 44 C-61 43.01 -61 42.02 -61 41 C-59.352 39.97 -57.679 38.979 -56 38 C-54.732 36.917 -53.484 35.81 -52.25 34.688 C-41.408 25 -41.408 25 -37 25 C-36.67 24.01 -36.34 23.02 -36 22 C-33.714 20.326 -31.462 18.803 -29.062 17.312 C-28.416 16.897 -27.77 16.481 -27.104 16.053 C-22.276 13 -22.276 13 -20 13 C-19.67 12.01 -19.34 11.02 -19 10 C-16.785 8.246 -16.785 8.246 -14.062 6.438 C-10.34 3.953 -10.34 3.953 -7 1 C-2.385 -1.192 -2.385 -1.192 0 0 Z M-36 26 C-34 27 -34 27 -34 27 Z M-51 37 C-49 38 -49 38 -49 38 Z " fill="#5C5C5D" transform="translate(61,812)"></path>
<path d="M0 0 C0.538 0.25 1.075 0.5 1.629 0.758 C0.629 3.758 0.629 3.758 -1.934 5.133 C-3.068 5.669 -4.202 6.205 -5.371 6.758 C-6.822 7.568 -8.259 8.402 -9.684 9.258 C-10.36 9.66 -11.037 10.062 -11.734 10.477 C-13.677 11.754 -13.677 11.754 -14.371 14.758 C-15.031 14.758 -15.691 14.758 -16.371 14.758 C-16.371 15.418 -16.371 16.078 -16.371 16.758 C-17.093 17.026 -17.815 17.294 -18.559 17.57 C-23.373 19.603 -26.138 20.994 -28.371 25.758 C-31.448 28.725 -34.179 29.281 -38.371 29.758 C-38.371 30.418 -38.371 31.078 -38.371 31.758 C-39.031 31.758 -39.691 31.758 -40.371 31.758 C-40.701 32.418 -41.031 33.078 -41.371 33.758 C-43.434 34.383 -43.434 34.383 -45.371 34.758 C-41.48 29.684 -37.984 26.772 -32.371 23.758 C-31.752 23.139 -31.134 22.52 -30.496 21.883 C-27.838 19.225 -24.868 17.403 -21.688 15.418 C-18.943 13.451 -16.749 11.154 -14.371 8.758 C-12.384 7.092 -10.362 5.466 -8.309 3.883 C-7.286 3.081 -6.264 2.279 -5.211 1.453 C-2.371 -0.242 -2.371 -0.242 0 0 Z M1.629 0.758 C3.629 1.758 3.629 1.758 3.629 1.758 Z " fill="#4A4B4C" transform="translate(259.37109375,662.2421875)"></path>
<path d="M0 0 C9.57 0.33 19.14 0.66 29 1 C29.33 2.32 29.66 3.64 30 5 C19.77 5 9.54 5 -1 5 C-0.67 3.35 -0.34 1.7 0 0 Z " fill="#1A1C20" transform="translate(327,267)"></path>
<path d="M0 0 C0.66 0.33 1.32 0.66 2 1 C0.649 5.421 -1.165 7.443 -5 10 C-5.66 10.144 -6.32 10.289 -7 10.438 C-10.134 11.319 -11.75 13.698 -14 16 C-17.751 19.027 -21.39 21.463 -26 23 C-26 23.66 -26 24.32 -26 25 C-26.99 25 -27.98 25 -29 25 C-29.66 25.66 -30.32 26.32 -31 27 C-33.625 27.625 -33.625 27.625 -36 28 C-33.831 24.747 -32.318 23.925 -29 22 C-27.354 20.735 -25.729 19.442 -24.125 18.125 C-12.828 9 -12.828 9 -9 9 C-9 8.34 -9 7.68 -9 7 C-7.031 5.273 -7.031 5.273 -4.5 3.375 C-3.665 2.743 -2.829 2.112 -1.969 1.461 C-1.319 0.979 -0.669 0.497 0 0 Z M-23 21 C-21 22 -21 22 -21 22 Z " fill="#5F6060" transform="translate(147,744)"></path>
<path d="M0 0 C9.9 0 19.8 0 30 0 C29.01 0.495 29.01 0.495 28 1 C28 1.66 28 2.32 28 3 C16.917 6.319 9.632 6.446 -1 2 C-0.67 1.34 -0.34 0.68 0 0 Z " fill="#B6B8B8" transform="translate(214,614)"></path>
<path d="M0 0 C0.33 0 0.66 0 1 0 C1 13.86 1 27.72 1 42 C0.67 42 0.34 42 0 42 C-0.33 40.02 -0.66 38.04 -1 36 C-1.33 47.22 -1.66 58.44 -2 70 C-2.33 70 -2.66 70 -3 70 C-3 53.17 -3 36.34 -3 19 C-2.67 19 -2.34 19 -2 19 C-1.939 18.131 -1.879 17.262 -1.816 16.367 C-1.733 15.215 -1.649 14.062 -1.562 12.875 C-1.481 11.738 -1.4 10.601 -1.316 9.43 C-1.023 6.246 -0.569 3.145 0 0 Z " fill="#191B1F" transform="translate(177,540)"></path>
<path d="M0 0 C0.66 0 1.32 0 2 0 C4.136 3.204 4.242 3.996 4.195 7.668 C4.189 8.561 4.182 9.453 4.176 10.373 C4.159 11.302 4.142 12.231 4.125 13.188 C4.116 14.128 4.107 15.068 4.098 16.037 C4.074 18.358 4.041 20.679 4 23 C2.35 23.33 0.7 23.66 -1 24 C-1.029 20.563 -1.047 17.125 -1.062 13.688 C-1.071 12.711 -1.079 11.735 -1.088 10.729 C-1.091 9.791 -1.094 8.853 -1.098 7.887 C-1.106 6.591 -1.106 6.591 -1.114 5.268 C-1 3 -1 3 0 0 Z " fill="#A3A4A5" transform="translate(514,323)"></path>
<path d="M0 0 C1.65 0.33 3.3 0.66 5 1 C5 5.95 5 10.9 5 16 C4.34 16 3.68 16 3 16 C2.67 16.99 2.34 17.98 2 19 C-1.093 14.67 -1.093 14.67 -0.688 11.75 C-0.461 10.842 -0.234 9.935 0 9 C0.101 5.998 0.059 3.003 0 0 Z M0 17 C0.99 18.32 1.98 19.64 3 21 C2.34 21.99 1.68 22.98 1 24 C0 23 0 23 -0.062 19.938 C-0.042 18.968 -0.021 17.999 0 17 Z " fill="#1A1C20" transform="translate(177,515)"></path>
<path d="M0 0 C0.66 0.33 1.32 0.66 2 1 C1.01 1 0.02 1 -1 1 C-0.67 0.67 -0.34 0.34 0 0 Z M-1 3 C-1.33 3.99 -1.66 4.98 -2 6 C-2.99 6 -3.98 6 -5 6 C-6.333 7.333 -7.646 8.688 -8.938 10.062 C-11 12 -11 12 -14 13 C-16.302 15.187 -18.489 17.408 -20.562 19.812 C-22 21 -22 21 -26 21 C-26 20.01 -26 19.02 -26 18 C-24.352 16.97 -22.679 15.979 -21 15 C-19.732 13.917 -18.484 12.81 -17.25 11.688 C-5.72 1.427 -5.72 1.427 -1 3 Z M-1 3 C1 4 1 4 1 4 Z M-16 14 C-14 15 -14 15 -14 15 Z " fill="#2F3131" transform="translate(26,835)"></path>
<path d="M0 0 C-4.75 4 -4.75 4 -7 4 C-7.33 4.66 -7.66 5.32 -8 6 C-8.976 7.023 -9.981 8.019 -11 9 C-11.722 9.722 -12.444 10.444 -13.188 11.188 C-14.085 12.085 -14.085 12.085 -15 13 C-15.66 12.67 -16.32 12.34 -17 12 C-14.542 6.277 -9.564 2.338 -4.125 -0.5 C-2 -1 -2 -1 0 0 Z M-1 1 C1 2 1 2 1 2 Z M-3 2 C-1 3 -1 3 -1 3 Z M-19 11 C-18.34 11.33 -17.68 11.66 -17 12 C-17.33 12.99 -17.66 13.98 -18 15 C-19.646 15.717 -21.314 16.383 -23 17 C-23.66 17.66 -24.32 18.32 -25 19 C-27.125 19.625 -27.125 19.625 -29 20 C-27.779 16.338 -26.632 15.837 -23.438 13.812 C-22.611 13.283 -21.785 12.753 -20.934 12.207 C-20.296 11.809 -19.657 11.41 -19 11 Z " fill="#3D3E3E" transform="translate(177,726)"></path>
<path d="M0 0 C0.66 0.33 1.32 0.66 2 1 C1.827 3.335 1.298 4.692 -0.332 6.379 C-4.572 10 -4.572 10 -7 10 C-7.495 10.495 -7.99 10.99 -8.5 11.5 C-8.995 11.995 -9.49 12.49 -10 13 C-10.66 13 -11.32 13 -12 13 C-14.163 15.033 -14.163 15.033 -16 18 C-16.66 17.67 -17.32 17.34 -18 17 C-14.742 9.464 -6.46 4.69 0 0 Z " fill="#525354" transform="translate(81,793)"></path>
<path d="M0 0 C1.026 0.007 1.026 0.007 2.072 0.014 C3.736 0.025 5.399 0.043 7.062 0.062 C7.062 0.723 7.062 1.382 7.062 2.062 C2.113 2.062 -2.837 2.062 -7.938 2.062 C-7.938 3.382 -7.938 4.702 -7.938 6.062 C-10.248 6.062 -12.558 6.062 -14.938 6.062 C-14.938 4.413 -14.938 2.762 -14.938 1.062 C-9.899 0.23 -5.125 -0.045 0 0 Z " fill="#101315" transform="translate(393.9375,272.9375)"></path>
<path d="M0 0 C0.66 0.33 1.32 0.66 2 1 C1.67 2.65 1.34 4.3 1 6 C0.34 6 -0.32 6 -1 6 C-1.66 6.66 -2.32 7.32 -3 8 C-3.66 8 -4.32 8 -5 8 C-5.454 8.454 -5.907 8.908 -6.375 9.375 C-8.137 11.137 -9.787 11.893 -12 13 C-13.709 14.541 -13.709 14.541 -15 16 C-15 15.34 -15 14.68 -15 14 C-16.32 14.33 -17.64 14.66 -19 15 C-14.095 9.686 -8.204 5.649 -2 2 C-1.34 1.34 -0.68 0.68 0 0 Z " fill="#68696A" transform="translate(192,711)"></path>
<path d="M0 0 C0.534 0.25 1.067 0.5 1.617 0.758 C0.617 3.758 0.617 3.758 -1.945 5.133 C-3.08 5.669 -4.214 6.205 -5.383 6.758 C-6.834 7.568 -8.271 8.402 -9.695 9.258 C-10.372 9.66 -11.049 10.062 -11.746 10.477 C-13.688 11.754 -13.688 11.754 -14.383 14.758 C-15.043 14.428 -15.703 14.098 -16.383 13.758 C-14.982 8.897 -12.506 6.864 -8.508 3.883 C-7.978 3.468 -7.448 3.053 -6.902 2.625 C-2.971 -0.302 -2.971 -0.302 0 0 Z M1.617 0.758 C3.617 1.758 3.617 1.758 3.617 1.758 Z " fill="#494A4B" transform="translate(259.3828125,662.2421875)"></path>
<path d="M0 0 C0.66 0 1.32 0 2 0 C2.33 15.84 2.66 31.68 3 48 C1.68 48.66 0.36 49.32 -1 50 C-1.99 49.34 -2.98 48.68 -4 48 C-2.35 47.34 -0.7 46.68 1 46 C0.67 30.82 0.34 15.64 0 0 Z " fill="#7F8080" transform="translate(263,613)"></path>
<path d="M0 0 C0.66 0.33 1.32 0.66 2 1 C0.649 5.421 -1.165 7.443 -5 10 C-5.928 10.22 -5.928 10.22 -6.875 10.445 C-10.251 11.327 -13.005 13.252 -15.977 15.039 C-16.644 15.356 -17.312 15.673 -18 16 C-18.66 15.67 -19.32 15.34 -20 15 C-18.736 13.991 -17.464 12.993 -16.188 12 C-15.126 11.165 -15.126 11.165 -14.043 10.312 C-12 9 -12 9 -9 9 C-9 8.34 -9 7.68 -9 7 C-7.031 5.273 -7.031 5.273 -4.5 3.375 C-3.665 2.743 -2.829 2.112 -1.969 1.461 C-1.319 0.979 -0.669 0.497 0 0 Z " fill="#787979" transform="translate(147,744)"></path>
<path d="M0 0 C0.33 0 0.66 0 1 0 C1.33 4.95 1.66 9.9 2 15 C2.33 15 2.66 15 3 15 C3 20.28 3 25.56 3 31 C2.01 31.33 1.02 31.66 0 32 C0 21.44 0 10.88 0 0 Z " fill="#6D6D6D" transform="translate(514,101)"></path>
<path d="M0 0 C-0.33 0.99 -0.66 1.98 -1 3 C-1.99 3.33 -2.98 3.66 -4 4 C-4.578 4.454 -5.155 4.908 -5.75 5.375 C-8.652 7.471 -11.687 8.663 -15 10 C-15.969 10.392 -16.939 10.784 -17.938 11.188 C-18.618 11.456 -19.299 11.724 -20 12 C-16.6 8.4 -13.156 5.678 -9 3 C-8.34 2.34 -7.68 1.68 -7 1 C-2.385 -1.192 -2.385 -1.192 0 0 Z " fill="#68696A" transform="translate(61,812)"></path>
<path d="M0 0 C0.66 0 1.32 0 2 0 C2 0.66 2 1.32 2 2 C2.804 2.124 3.609 2.248 4.438 2.375 C5.706 2.684 5.706 2.684 7 3 C7.33 3.66 7.66 4.32 8 5 C7.67 5.66 7.34 6.32 7 7 C4.69 7 2.38 7 0 7 C-0.33 5.68 -0.66 4.36 -1 3 C-2.32 3 -3.64 3 -5 3 C-4.67 2.34 -4.34 1.68 -4 1 C-2.02 1.495 -2.02 1.495 0 2 C0 1.34 0 0.68 0 0 Z " fill="#555555" transform="translate(371,112)"></path>
<path d="M0 0 C0.66 0.33 1.32 0.66 2 1 C1.67 9.25 1.34 17.5 1 26 C0.67 26 0.34 26 0 26 C-1.466 8.064 -1.466 8.064 -1 1 C-0.67 0.67 -0.34 0.34 0 0 Z " fill="#0B0D0E" transform="translate(175,547)"></path>
<path d="M0 0 C0.66 0.33 1.32 0.66 2 1 C1.072 1.701 0.144 2.403 -0.812 3.125 C-3.324 5.174 -4.079 6.171 -5.5 9.25 C-5.995 10.158 -6.49 11.065 -7 12 C-10.188 12.875 -10.188 12.875 -13 13 C-13 12.01 -13 11.02 -13 10 C-11.352 8.97 -9.679 7.979 -8 7 C-5.266 4.741 -2.628 2.381 0 0 Z " fill="#5D5E5E" transform="translate(13,843)"></path>
<path d="M0 0 C0.66 0 1.32 0 2 0 C1.812 2.875 1.812 2.875 1 6 C-1.062 7.125 -1.062 7.125 -4 8 C-6.096 9.064 -8.163 10.174 -10.23 11.293 C-10.814 11.526 -11.398 11.76 -12 12 C-12.66 11.67 -13.32 11.34 -14 11 C-13.157 10.457 -12.314 9.915 -11.445 9.355 C-10.35 8.64 -9.254 7.925 -8.125 7.188 C-7.034 6.48 -5.944 5.772 -4.82 5.043 C-1.835 3.13 -1.835 3.13 0 0 Z " fill="#414243" transform="translate(242,673)"></path>
<path d="M0 0 C0.99 0.33 1.98 0.66 3 1 C2.67 1.66 2.34 2.32 2 3 C1.34 2.67 0.68 2.34 0 2 C0 1.34 0 0.68 0 0 Z M-2 1 C-1.34 1.33 -0.68 1.66 0 2 C-0.33 2.99 -0.66 3.98 -1 5 C-2.646 5.717 -4.314 6.383 -6 7 C-6.66 7.66 -7.32 8.32 -8 9 C-10.125 9.625 -10.125 9.625 -12 10 C-10.779 6.338 -9.632 5.837 -6.438 3.812 C-5.611 3.283 -4.785 2.753 -3.934 2.207 C-3.296 1.809 -2.657 1.41 -2 1 Z " fill="#2B2C2D" transform="translate(160,736)"></path>
<path d="M0 0 C0.99 0.33 1.98 0.66 3 1 C0.852 3.363 -1.167 4.583 -4 6 C-4.33 6.66 -4.66 7.32 -5 8 C-5.99 9.485 -5.99 9.485 -7 11 C-7.66 10.67 -8.32 10.34 -9 10 C-7.635 6.883 -6.131 4.913 -3.562 2.688 C-2.966 2.155 -2.369 1.623 -1.754 1.074 C-1.175 0.72 -0.596 0.365 0 0 Z " fill="#2B2C2D" transform="translate(202,704)"></path>
<path d="M0 0 C0.66 0.33 1.32 0.66 2 1 C1.34 1.66 0.68 2.32 0 3 C0 2.01 0 1.02 0 0 Z M-3 2 C-2.01 2.33 -1.02 2.66 0 3 C-1.65 4.65 -3.3 6.3 -5 8 C-5.99 7.34 -6.98 6.68 -8 6 C-5.688 3.938 -5.688 3.938 -3 2 Z M-10 7 C-8 8 -8 8 -8 8 Z M-8 8 C-6 9 -6 9 -6 9 Z " fill="#2A2B2C" transform="translate(132,757)"></path>
<path d="M0 0 C0.33 0.99 0.66 1.98 1 3 C0.01 3.33 -0.98 3.66 -2 4 C-2 4.66 -2 5.32 -2 6 C-2.66 6 -3.32 6 -4 6 C-4.33 6.66 -4.66 7.32 -5 8 C-7.062 8.625 -7.062 8.625 -9 9 C-8.067 7.871 -7.129 6.747 -6.188 5.625 C-5.665 4.999 -5.143 4.372 -4.605 3.727 C-3 2 -3 2 0 0 Z " fill="#3E3F40" transform="translate(223,688)"></path>
<path d="M0 0 C0.99 0 1.98 0 3 0 C3.125 3.375 3.125 3.375 3 7 C2.34 7.66 1.68 8.32 1 9 C-0.478 6.043 -0.06 3.258 0 0 Z " fill="#101315" transform="translate(190,465)"></path>
<path d="M0 0 C0.66 0.33 1.32 0.66 2 1 C1.67 1.99 1.34 2.98 1 4 C0.01 4.33 -0.98 4.66 -2 5 C-3.485 5.99 -3.485 5.99 -5 7 C-5 6.01 -5 5.02 -5 4 C-2.5 1.812 -2.5 1.812 0 0 Z " fill="#1F2021" transform="translate(59,811)"></path>
<path d="M0 0 C0.99 0.33 1.98 0.66 3 1 C2.361 1.619 1.721 2.237 1.062 2.875 C-1.039 4.826 -1.039 4.826 -2 7 C-2.66 6.67 -3.32 6.34 -4 6 C-2.25 1.125 -2.25 1.125 0 0 Z " fill="#2E2F30" transform="translate(247,670)"></path>
<path d="M0 0 C0.66 0.66 1.32 1.32 2 2 C1.01 2.99 0.02 3.98 -1 5 C-1.99 4.67 -2.98 4.34 -4 4 C-2.68 2.68 -1.36 1.36 0 0 Z M-5 4 C-4.34 4.66 -3.68 5.32 -3 6 C-3.99 6 -4.98 6 -6 6 C-5.67 5.34 -5.34 4.68 -5 4 Z " fill="#4E4F50" transform="translate(146,747)"></path>
<path d="M0 0 C0 3 0 3 -1.5 4.688 C-1.995 5.121 -2.49 5.554 -3 6 C-3 5.34 -3 4.68 -3 4 C-4.32 4.33 -5.64 4.66 -7 5 C-4.637 2.474 -3.335 1.112 0 0 Z " fill="#828384" transform="translate(180,721)"></path>
<path d="M0 0 C0.66 0 1.32 0 2 0 C1.67 1.98 1.34 3.96 1 6 C-0.65 5.67 -2.3 5.34 -4 5 C-2.719 3.293 -1.382 1.626 0 0 Z " fill="#656666" transform="translate(242,673)"></path>
<path d="M0 0 C0.66 0.33 1.32 0.66 2 1 C0.688 2.5 0.688 2.5 -1 4 C-1.99 4 -2.98 4 -4 4 C-4.33 3.34 -4.66 2.68 -5 2 C-2.625 0.938 -2.625 0.938 0 0 Z " fill="#343536" transform="translate(185,718)"></path>
<path d="M0 0 C0.99 0.33 1.98 0.66 3 1 C2.01 2.485 2.01 2.485 1 4 C-1.625 4.188 -1.625 4.188 -4 4 C-2.68 2.68 -1.36 1.36 0 0 Z " fill="#505152" transform="translate(252,666)"></path>
<path d="M0 0 C2 3 2 3 1.625 5.688 C1.419 6.451 1.212 7.214 1 8 C0.34 8 -0.32 8 -1 8 C-0.67 5.36 -0.34 2.72 0 0 Z " fill="#636363" transform="translate(515,125)"></path>
<path d="M0 0 C0.66 0.66 1.32 1.32 2 2 C0.02 2.66 -1.96 3.32 -4 4 C-2.68 2.68 -1.36 1.36 0 0 Z M-4 5 C-2 6 -2 6 -2 6 Z " fill="#272829" transform="translate(113,771)"></path>
<path d="M0 0 C0.66 0.33 1.32 0.66 2 1 C1.34 2.32 0.68 3.64 0 5 C-0.66 4.01 -1.32 3.02 -2 2 C-1.34 1.34 -0.68 0.68 0 0 Z " fill="#565757" transform="translate(212,697)"></path>
<path d="M0 0 C0.99 0.33 1.98 0.66 3 1 C1.515 2.485 1.515 2.485 0 4 C-0.99 3.34 -1.98 2.68 -3 2 C-2.01 1.34 -1.02 0.68 0 0 Z " fill="#3C3D3E" transform="translate(202,704)"></path>
<path d="M0 0 C0.99 0.33 1.98 0.66 3 1 C2.67 1.99 2.34 2.98 2 4 C1.01 3.67 0.02 3.34 -1 3 C-0.67 2.01 -0.34 1.02 0 0 Z " fill="#1A1C20" transform="translate(209,435)"></path>
<path d="M0 0 C0.66 0 1.32 0 2 0 C1.34 1.65 0.68 3.3 0 5 C-0.66 4.34 -1.32 3.68 -2 3 C-1.34 2.01 -0.68 1.02 0 0 Z " fill="#3C3D3E" transform="translate(34,828)"></path>
<path d="M0 0 C0.99 0.33 1.98 0.66 3 1 C1.515 1.99 1.515 1.99 0 3 C0 2.01 0 1.02 0 0 Z " fill="#212223" transform="translate(105,777)"></path>
<path d="" fill="#000101" transform="translate(0,0)"></path>
<path d="" fill="#898A8A" transform="translate(0,0)"></path>
<path d="" fill="#545454" transform="translate(0,0)"></path>
<path d="" fill="#000101" transform="translate(0,0)"></path>
<path d="" fill="#FAFAFA" transform="translate(0,0)"></path>
<path d="" fill="#6D6D6D" transform="translate(0,0)"></path>
<path d="" fill="#545454" transform="translate(0,0)"></path>
</svg>