<?xml version="1.0" standalone="no"?>
<!DOCTYPE svg PUBLIC "-//W3C//DTD SVG 20010904//EN"
 "http://www.w3.org/TR/2001/REC-SVG-20010904/DTD/svg10.dtd">
<svg version="1.0" xmlns="http://www.w3.org/2000/svg"
 width="2000.000000pt" height="2000.000000pt" viewBox="0 0 2000.000000 2000.000000"
 preserveAspectRatio="xMidYMid meet">
<metadata>
Created by potrace 1.14, written by Peter Selinger 2001-2017
</metadata>
<g transform="translate(0.000000,2000.000000) scale(0.100000,-0.100000)"
fill="#000000" stroke="none">
<path d="M0 10000 l0 -10000 10000 0 10000 0 0 10000 0 10000 -10000 0 -10000
0 0 -10000z m4428 5581 c368 -220 1772 -1064 3121 -1875 l2451 -1476 2451
1476 c2279 1371 3785 2274 3795 2274 2 0 3 -1850 2 -4111 l-3 -4112 -320 -191
c-176 -105 -1578 -944 -3115 -1865 -1537 -921 -2802 -1675 -2810 -1675 -8 0
-1273 754 -2810 1675 -1537 921 -2939 1760 -3115 1865 l-320 191 -3 4112 c-1
2261 0 4111 2 4111 2 0 305 -180 674 -399z"/>
<path d="M5080 11073 l0 -2528 2452 -1470 c1349 -808 2459 -1470 2468 -1470 9
0 1119 662 2468 1470 l2452 1470 0 2528 0 2529 -32 -20 c-18 -11 -1125 -675
-2460 -1475 l-2428 -1455 -2427 1455 c-1336 800 -2443 1464 -2460 1475 l-33
20 0 -2529z m3158 -1077 l1762 -1047 1762 1047 c970 575 1768 1049 1775 1051
10 4 13 -151 13 -788 l-1 -794 -1774 -1053 -1775 -1054 -1775 1054 -1774 1053
-1 794 c0 637 3 792 13 788 7 -2 805 -476 1775 -1051z"/>
</g>
</svg>
